PathFileType	4	(X/Y/Z)	C:/Users/beibeiliu/ov580/test_trc/User1\sequence.11_training_dense_left.trc
DataRate	CameraRate	NumFrames	NumMarkers	Units	OrigDataRate	OrigDataStartFrame	OrigNumFrames
120	120	24	19	mm	120	171	341
Frame#	Time	ThumbCMC			ThumbMCP			ThumbIP			ThumbTip			IndexMCP			IndexPIP			IndexTip			MiddleMCP			MiddlePIP			MiddleTip			RingMCP			RingPIP			RingTip			PinkyMCP			PinkyPIP			PinkyTip			BackHand1			BackHand2			BackHand3	
		X0	Y0	Z0	X1	Y1	Z1	X2	Y2	Z2	X3	Y3	Z3	X4	Y4	Z4	X5	Y5	Z5	X6	Y6	Z6	X7	Y7	Z7	X8	Y8	Z8	X9	Y9	Z9	X10	Y10	Z10	X11	Y11	Z11	X12	Y12	Z12	X13	Y13	Z13	X14	Y14	Z14	X15	Y15	Z15	X16	Y16	Z16	X17	Y17	Z17	X18	Y18	Z18	
170	1.41667	-173.469	118.133	22.785	-162.043	100.141	-12.7838	-171.301	97.365	-39.7429	-193.635	91.1066	-62.4435	-180.702	163.672	-48.5295	-178.688	168.874	-70.228	-180.081	175.099	-95.6302	-214.354	158.875	-59.9307	-208.596	163.335	-87.1204	-214.482	161.405	-114.069	-221.629	119.947	-62.8773	-204.226	91.9907	-57.279	-204.546	93.2402	-26.5696	-238.193	103.342	-45.6304	-216.271	85.7617	-38.7581	-209.6	97.1814	-6.6452	-240.2	137.703	-0.201639	-243.896	131.727	34.3512	-208.35	147.469	23.7818	
171	1.425	-174.394	119.148	25.4395	-166.287	103.108	-11.1344	-175.908	101.415	-40.7002	-190.187	93.935	-59.1654	-180.989	165.636	-47.8802	-181.733	169.758	-69.9432	-182.074	177.826	-95.4801	-214.046	160.463	-58.5043	-210.558	162.568	-82.9294	-212.162	164.247	-115.73	-220.482	124.404	-59.851	-206.499	95.3214	-61.2752	-204.254	94.3997	-23.7041	-239.021	106.467	-45.146	-215.612	86.1907	-38.351	-209.726	96.6669	-10.2261	-240.612	140.461	-3.51608	-243.764	132.693	36.8581	-205.484	147.883	24.826	
172	1.43333	-176.02	120.786	25.7457	-162.136	104.509	-10.9777	-173.296	104.526	-40.84	-187.035	94.2066	-63.7775	-182.81	167.163	-42.105	-182.729	173.82	-67.5929	-180.359	181.009	-90.5923	-215.741	160.478	-56.0471	-210.112	164.939	-84.7853	-211.544	164.557	-118.462	-218.735	124.563	-61.9176	-202.962	95.5912	-58.5594	-203.237	92.544	-26.119	-240.23	106.017	-46.1158	-215.258	88.3849	-37.5117	-211.654	101.006	-5.62992	-237.577	143.248	-1.94693	-245.785	133.674	33.0762	-212.248	148.185	24.9261	
173	1.44167	-180.024	124.34	24.9161	-167.033	109.952	-10.8553	-168.841	106.607	-42.5831	-183.068	98.9833	-62.1221	-187.122	170.508	-41.452	-183.54	180.756	-69.0809	-187.506	185.779	-90.6719	-216.138	163.214	-56.3937	-211.038	166.415	-87.8802	-207.358	163.288	-119.62	-220.629	127.761	-57.8177	-205.081	97.1712	-60.6494	-194.903	93.9358	-26.6674	-237.265	109.064	-48.2169	-213.799	93.0491	-37.988	-211.169	104.142	-6.94769	-239.645	145.462	1.25759	-244.867	134.191	30.97	-209.486	153.208	24.0076	
174	1.45	-180.678	127.133	25.083	-167.578	115.043	-8.88501	-163.561	111.406	-39.9463	-175.752	105.758	-60.8343	-186.132	176.061	-37.1923	-187.711	184.273	-66.018	-187.796	193.998	-90.1289	-217.146	166.257	-56.3299	-211.401	164.644	-89.548	-205.897	155.357	-115.786	-222.913	127.174	-59.1523	-199.291	102.587	-57.5018	-195.207	95.2807	-25.8005	-238.017	110.522	-47.4599	-212.66	98.3512	-39.4697	-210.068	109.753	-8.84724	-245.023	147.051	-1.45563	-248.941	135.399	32.8448	-212.978	153.903	26.3783	
175	1.45833	-181.888	129.083	29.1656	-163.842	118.471	-7.05689	-162.368	117.119	-35.0658	-161.27	109.612	-61.427	-192.662	179.418	-37.983	-187.632	189.974	-58.8702	-188.762	200.324	-84.6723	-219.121	168.087	-57.0311	-212.202	162.693	-86.2728	-195.884	140.8	-113.004	-221.945	131.047	-56.6833	-198.602	106.044	-54.7668	-194.084	98.6357	-25.5338	-238.124	111.998	-47.2064	-214.033	99.6503	-37.3569	-209.346	112.363	-6.65306	-244.489	146.157	4.16815	-247.546	136.292	34.3592	-215.134	155.081	28.698	
176	1.46667	-181.202	133.118	25.5036	-164.523	121.084	-6.22221	-159.217	120.272	-32.7316	-156.781	115.223	-58.3843	-194.642	183.092	-35.9723	-193.89	194.496	-62.4401	-193.905	203.988	-82.3546	-216.916	167.72	-57.5073	-203.884	157.321	-84.4653	-183.181	125.293	-98.1456	-223.011	133.023	-55.1238	-202.901	106.197	-53.8248	-196.083	103.71	-18.0519	-235.655	118.896	-45.8161	-214.627	100.015	-32.8909	-212.681	112.924	-4.10073	-247.111	148.653	3.34386	-250.18	137.425	34.8699	-215.349	159.55	27.2738	
177	1.475	-178.275	134.731	28.5735	-163.794	123.338	-5.70406	-158.793	123.691	-30.1694	-158.398	121.205	-59.6037	-192.364	189.26	-36.2055	-194.033	197.896	-58.4985	-193.692	209.851	-83.4639	-212.562	166.363	-54.4288	-195.23	144.658	-81.3007	-180.563	113.018	-74.0664	-218.798	137.177	-54.4174	-202.792	109.042	-51.2455	-199.038	106.433	-14.3481	-241.34	121.022	-43.6713	-217.031	102.099	-35.0424	-216.254	114.644	-2.54739	-246.884	152.946	1.23843	-251.929	136.266	37.2284	-217.834	159.661	30.241	
178	1.48333	-177.699	134.506	28.6573	-168.071	126.364	-5.51621	-156.388	127.022	-33.6997	-156.985	122.179	-59.3697	-190.977	188.022	-32.2422	-194.704	199.05	-56.6876	-193.494	213.466	-81.7162	-203.493	165.453	-56.7748	-187.754	137.52	-72.344	-179.46	107.907	-51.794	-218.8	139.881	-52.2391	-203.654	107.481	-47.2111	-199.3	107.358	-13.618	-238.932	122.156	-45.8992	-217.116	107.453	-37.1538	-215.501	118.645	-5.36316	-247.054	152.977	2.56539	-247.744	142.022	36.7631	-214.389	161.263	31.782	
179	1.49167	-178.407	133.494	30.6447	-164.217	124.842	-1.48222	-160.119	127.934	-32.8453	-161.356	123.499	-56.4606	-191.759	190.558	-36.2441	-189.678	199.666	-53.5789	-196.852	208.952	-78.3856	-202.428	164.211	-52.669	-187.621	136.124	-67.4133	-184.934	108.342	-39.083	-222.052	137.795	-51.2999	-201.878	111.064	-47.8354	-201.144	106.406	-12.1458	-238.28	122.684	-46.1427	-214.687	109.095	-34.5594	-216.469	120.166	-5.37608	-246.447	152.852	5.18238	-246.524	139.129	38.7306	-215.736	159.257	32.7689	
180	1.5	-179.209	135.143	29.8351	-162.399	125.567	-1.09785	-157.248	129.229	-35.6265	-165.663	124.562	-60.871	-194.171	187.063	-32.864	-192.527	198.68	-58.158	-192.261	210.983	-78.8784	-199.163	160.824	-54.5004	-184.287	129.646	-61.85	-185.732	110.295	-28.0466	-218.067	135.49	-53.8078	-199.182	111.714	-48.1803	-200.511	104.327	-12.011	-234.307	124.879	-45.3975	-213.101	109.823	-34.9647	-214.349	121.92	-4.93309	-242.176	156.141	4.63929	-249.793	142.655	35.5478	-217.093	157.472	30.6083	
181	1.50833	-178.748	133.592	28.8155	-158.678	125.37	-5.56221	-155.751	125.838	-32.6523	-165.278	122.328	-61.2081	-188.912	189.302	-35.6759	-189.256	195.66	-55.0892	-188.637	210.773	-80.8433	-200.104	159.688	-53.1478	-183.493	131.038	-61.1291	-188.845	112.367	-22.2029	-220.037	137.497	-50.2043	-198.584	107.307	-44.6556	-198.734	102.42	-14.5583	-238.674	122.708	-42.5573	-211.074	111.505	-31.969	-214.425	123.552	-2.25062	-240.518	155.588	5.65729	-247.198	138.473	38.8021	-214.69	159.829	28.07	
182	1.51667	-177.41	128.721	31.8823	-158.594	121.33	-4.62752	-155.97	122.629	-35.1132	-165.609	117.808	-59.7988	-186.104	185.366	-32.1185	-185.836	194.326	-54.258	-188.399	207.502	-80.3708	-196.94	158.357	-52.9193	-184.528	123.406	-57.9076	-188.843	112.278	-24.1754	-212.032	136.478	-50.6577	-198.952	106.408	-45.1145	-200.669	99.8296	-10.3864	-234.487	122.273	-42.9727	-213.997	104.552	-31.9121	-215.097	122.814	-1.46222	-239.746	153.561	5.98076	-243.606	139.906	40.9524	-210.082	157.057	31.4863	
183	1.525	-176.566	127.015	31.0019	-157.201	116.367	-3.77487	-154.973	117.711	-32.9639	-171.674	115.241	-57.3067	-185.66	181.936	-34.1794	-181.479	194.405	-58.7608	-184.218	202.621	-79.4032	-198.458	154.782	-51.8476	-183.915	119.005	-57.1954	-188.246	111.855	-19.1952	-214.151	133.925	-49.8576	-201.177	101.243	-45.0095	-198.516	96.9435	-13.4431	-236.002	121.167	-41.727	-211.427	106.618	-31.0169	-208.326	120.173	-2.68339	-234.507	152.769	8.90863	-244.548	140.008	40.0924	-208.225	154.363	33.1471	
184	1.53333	-172.768	125.6	28.9185	-156.36	111.921	-3.21169	-156.638	112.451	-32.1576	-167.331	107.684	-55.7982	-183.157	176.217	-34.4025	-181.141	185.324	-57.1058	-186.382	194.405	-81.4156	-195.164	146.481	-56.2301	-180.578	117.272	-59.3849	-184.736	107.377	-20.3567	-212.874	126.583	-52.5898	-198.216	98.7939	-45.1819	-198.696	93.3228	-9.95717	-232.612	116.577	-43.5383	-209.498	102.285	-31.9398	-210.096	113.978	-2.56137	-234.69	151.208	5.74983	-239.952	136.771	39.2835	-205.331	153.918	29.6145	
185	1.54167	-172.069	121.529	29.7674	-156.277	108.945	-3.62968	-154.459	108.463	-33.8678	-169.933	103.172	-56.367	-180.818	172.885	-38.6094	-180.895	179.862	-59.7542	-184.555	187.665	-84.3171	-189.959	144.037	-55.7149	-181.746	111.163	-58.365	-185.336	104.098	-20.4198	-211.582	125.002	-49.8531	-195.181	95.3698	-46.5265	-196.025	91.1176	-11.0903	-231.342	116.535	-42.2436	-210.07	94.8653	-30.5123	-208.272	110.014	-4.81969	-232.576	148.358	4.49048	-236.803	137.103	36.0015	-202.876	151.632	28.2298	
186	1.55	-169.479	119.832	31.8378	-155.32	104.707	-2.26898	-150.878	100.742	-31.0092	-165.175	94.7263	-54.6804	-180.013	165.845	-36.1165	-179.026	177.057	-64.6424	-181.695	182.385	-84.8101	-194.012	138.954	-53.5212	-178.618	104.746	-56.1752	-184.381	99.404	-18.6331	-206.951	117.449	-51.4299	-196.267	87.3158	-42.3867	-198.585	87.0703	-6.97024	-231.589	105.896	-43.62	-209.418	91.3458	-33.0947	-207.301	108.259	-3.49551	-236.799	142.014	3.82022	-239.411	136.018	36.4157	-202.634	148.043	30.9132	
187	1.55833	-174.502	117.278	31.6218	-158.216	102.126	0.75113	-151.949	97.4671	-29.7959	-164.457	91.2404	-55.7535	-179.693	163.862	-39.8059	-176.806	171.709	-59.7743	-179.906	180.539	-88.7974	-188.348	134.201	-55.7966	-180.415	100.426	-57.1686	-184.038	95.5949	-19.6576	-205.831	114.522	-51.5382	-193.229	85.8382	-41.972	-196.166	82.9492	-10.0694	-231.313	102.347	-43.515	-210.4	84.4503	-30.8948	-208.998	101.382	-2.14216	-230.246	141.36	0.869898	-240.977	131.597	34.7075	-206.574	147.081	26.0927	
188	1.56667	-172.229	116.343	32.0249	-154.975	100.417	-0.596889	-151.67	96.8504	-30.2094	-167.285	90.0566	-54.9504	-177.858	161.754	-38.6129	-175.05	169.231	-60.437	-180.045	176.971	-88.0021	-193.529	132.461	-53.7611	-178.612	99.1085	-56.6424	-182.636	95.8083	-14.231	-209.679	111.306	-51.3996	-196.373	81.2834	-40.9249	-196.464	83.5279	-6.64132	-228.194	100.997	-43.7648	-211.881	82.1929	-31.7984	-210.097	96.1561	-1.96015	-235.313	141.012	-0.44368	-240.259	130.947	38.7258	-205.098	147.04	25.2884	
189	1.575	-172.119	115.712	31.1535	-159.461	100.854	-0.457443	-151.689	94.344	-28.3564	-165.563	87.6928	-56.8424	-175.423	160.489	-36.1376	-174.108	168.728	-61.9416	-176.434	175.798	-85.9684	-190.802	131.557	-54.2747	-181.1	96.9089	-57.0372	-186.181	93.484	-15.8894	-206.029	111.391	-51.3385	-197.114	78.7695	-38.5476	-196.673	82.7381	-4.41163	-230.025	100.532	-44.2021	-210.996	85.1005	-32.0727	-209.337	99.9891	-1.94877	-231.87	141.091	4.91841	-240.369	132.48	39.205	-201.88	144.358	27.5067	
190	1.58333	-169.524	115.211	31.6874	-156.051	99.4027	-2.38041	-152.408	95.1711	-30.8434	-164.979	88.3128	-56.1218	-176.379	158.329	-36.9613	-177.595	164.67	-62.4239	-177.13	174.468	-89.5978	-190.627	130.075	-55.267	-178.369	95.2771	-54.4991	-186.68	92.3509	-16.6212	-212.898	111.049	-49.5161	-196.071	81.7565	-40.3213	-199.94	81.3431	-5.28911	-232.299	105.257	-40.8462	-211.04	85.2473	-30.8099	-208.385	102.362	-0.645118	-233.479	139.973	-0.794907	-240.081	133.163	34.3724	-201.011	144.424	30.4023	
191	1.59167	-172.588	116.848	29.5121	-156.744	99.5073	1.66955	-153.978	95.5075	-26.5952	-167.997	90.488	-53.3235	-176.112	158.517	-40.1098	-174.904	166.297	-65.2995	-178.375	171.101	-89.9961	-191.014	130.225	-55.3775	-183.11	96.0838	-57.062	-186.418	93.7404	-14.8511	-206.74	111.641	-50.8345	-198.356	80.6657	-38.6909	-200.188	82.427	-5.70125	-229.406	105.393	-41.1199	-211.575	84.9563	-31.4776	-209.051	104.98	-3.02687	-233.409	142.248	0.531905	-239.177	135.303	34.306	-204.842	144.387	28.5105	
192	1.6	-169.395	115.848	32.3186	-155.032	100.67	-0.564993	-155.609	97.7426	-29.2615	-166.772	88.5281	-57.071	-174.699	160.195	-42.565	-176.446	162.943	-64.9397	-172.921	170.177	-93.0747	-191.921	131.8	-54.0397	-184.072	96.8253	-56.4438	-186.656	91.8796	-17.3203	-210.542	110.631	-50.2599	-197.946	80.4465	-39.257	-195.537	84.1003	-4.58962	-233.939	103.338	-40.5792	-212.724	83.5847	-30.8042	-207.785	101.369	-0.464759	-232.739	141.265	3.15021	-236.325	134.517	39.3346	-202.27	145.655	28.226	
193	1.60833	-170.02	119.038	34.2678	-158.334	102.424	0.979842	-155.157	99.4127	-30.2727	-160.501	89.6903	-55.2383	-174.614	161.594	-44.5635	-172.362	164.677	-67.5725	-176.036	168.875	-94.9042	-189.464	130.328	-57.5964	-182.573	98.5222	-58.321	-186.482	91.9818	-18.8451	-210.546	110.268	-51.3621	-196.398	82.3658	-39.4983	-196.892	81.3223	-8.55041	-230.841	107.703	-40.5174	-211.66	84.4469	-30.4148	-207.637	103.909	1.09651	-233.764	142.768	-1.49738	-242.053	137.789	36.3566	-201.484	148.892	26.797	
